{
	"patcher" : 	{
		"fileversion" : 1,
		"appversion" : 		{
			"major" : 9,
			"minor" : 0,
			"revision" : 2,
			"architecture" : "x64",
			"modernui" : 1
		}
,
		"classnamespace" : "box",
		"rect" : [ 60.0, 114.0, 674.0, 723.0 ],
		"gridsize" : [ 15.0, 15.0 ],
		"style" : "plant-1",
		"boxes" : [ 			{
				"box" : 				{
					"id" : "obj-5",
					"maxclass" : "newobj",
					"numinlets" : 6,
					"numoutlets" : 1,
					"outlettype" : [ "" ],
					"patching_rect" : [ 329.0, 107.0, 97.0, 22.0 ],
					"text" : "scale 0. 1. 2 100"
				}

			}
, 			{
				"box" : 				{
					"id" : "obj-33",
					"maxclass" : "comment",
					"numinlets" : 1,
					"numoutlets" : 0,
					"patching_rect" : [ 550.0, 33.0, 80.508470833301544, 20.0 ],
					"text" : "unhappiness"
				}

			}
, 			{
				"box" : 				{
					"comment" : "unhappiness",
					"id" : "obj-31",
					"index" : 5,
					"maxclass" : "inlet",
					"numinlets" : 0,
					"numoutlets" : 1,
					"outlettype" : [ "" ],
					"patching_rect" : [ 550.0, 66.0, 30.0, 30.0 ]
				}

			}
, 			{
				"box" : 				{
					"id" : "obj-30",
					"linecount" : 2,
					"maxclass" : "comment",
					"numinlets" : 1,
					"numoutlets" : 0,
					"patching_rect" : [ 329.0, 20.0, 66.0, 33.0 ],
					"text" : "number of cicadas"
				}

			}
, 			{
				"box" : 				{
					"comment" : "",
					"id" : "obj-28",
					"index" : 3,
					"maxclass" : "inlet",
					"numinlets" : 0,
					"numoutlets" : 1,
					"outlettype" : [ "" ],
					"patching_rect" : [ 329.0, 67.0, 30.0, 30.0 ]
				}

			}
, 			{
				"box" : 				{
					"id" : "obj-27",
					"maxclass" : "comment",
					"numinlets" : 1,
					"numoutlets" : 0,
					"patching_rect" : [ 450.0, 33.0, 48.0, 20.0 ],
					"text" : "volume"
				}

			}
, 			{
				"box" : 				{
					"id" : "obj-25",
					"maxclass" : "number",
					"numinlets" : 1,
					"numoutlets" : 2,
					"outlettype" : [ "", "bang" ],
					"parameter_enable" : 0,
					"patching_rect" : [ 51.0, 141.0, 50.0, 22.0 ]
				}

			}
, 			{
				"box" : 				{
					"id" : "obj-23",
					"maxclass" : "comment",
					"numinlets" : 1,
					"numoutlets" : 0,
					"patching_rect" : [ 197.0, 33.0, 114.0, 20.0 ],
					"text" : "pitch change speed"
				}

			}
, 			{
				"box" : 				{
					"id" : "obj-7",
					"maxclass" : "comment",
					"numinlets" : 1,
					"numoutlets" : 0,
					"patching_rect" : [ 51.0, 33.0, 34.0, 20.0 ],
					"text" : "pitch"
				}

			}
, 			{
				"box" : 				{
					"id" : "obj-22",
					"maxclass" : "newobj",
					"numinlets" : 6,
					"numoutlets" : 1,
					"outlettype" : [ "" ],
					"patching_rect" : [ 450.0, 107.0, 90.0, 22.0 ],
					"text" : "scale 0. 1. 0. 1."
				}

			}
, 			{
				"box" : 				{
					"comment" : "volume",
					"id" : "obj-21",
					"index" : 4,
					"maxclass" : "inlet",
					"numinlets" : 0,
					"numoutlets" : 1,
					"outlettype" : [ "" ],
					"patching_rect" : [ 450.0, 66.0, 30.0, 30.0 ]
				}

			}
, 			{
				"box" : 				{
					"id" : "obj-16",
					"maxclass" : "newobj",
					"numinlets" : 2,
					"numoutlets" : 1,
					"outlettype" : [ "signal" ],
					"patching_rect" : [ 51.0, 512.0, 34.0, 22.0 ],
					"text" : "*~ 0."
				}

			}
, 			{
				"box" : 				{
					"comment" : "pitch change speed (float 0-1)",
					"id" : "obj-15",
					"index" : 2,
					"maxclass" : "inlet",
					"numinlets" : 0,
					"numoutlets" : 1,
					"outlettype" : [ "" ],
					"patching_rect" : [ 197.0, 66.0, 30.0, 30.0 ]
				}

			}
, 			{
				"box" : 				{
					"comment" : "pitch (float 0-1)",
					"id" : "obj-13",
					"index" : 1,
					"maxclass" : "inlet",
					"numinlets" : 0,
					"numoutlets" : 1,
					"outlettype" : [ "" ],
					"patching_rect" : [ 51.0, 66.0, 30.0, 30.0 ]
				}

			}
, 			{
				"box" : 				{
					"id" : "obj-12",
					"maxclass" : "newobj",
					"numinlets" : 6,
					"numoutlets" : 1,
					"outlettype" : [ "" ],
					"patching_rect" : [ 197.0, 107.0, 103.0, 22.0 ],
					"text" : "scale 0. 1. 20 200"
				}

			}
, 			{
				"box" : 				{
					"id" : "obj-10",
					"maxclass" : "newobj",
					"numinlets" : 6,
					"numoutlets" : 1,
					"outlettype" : [ "" ],
					"patching_rect" : [ 51.0, 107.0, 123.0, 22.0 ],
					"text" : "scale 0. 1. 2000 6000"
				}

			}
, 			{
				"box" : 				{
					"id" : "obj-3",
					"maxclass" : "newobj",
					"numinlets" : 1,
					"numoutlets" : 1,
					"outlettype" : [ "signal" ],
					"patching_rect" : [ 51.0, 456.0, 84.0, 22.0 ],
					"text" : "mc.unpack~ 1"
				}

			}
, 			{
				"box" : 				{
					"comment" : "",
					"id" : "obj-2",
					"index" : 1,
					"maxclass" : "outlet",
					"numinlets" : 1,
					"numoutlets" : 0,
					"patching_rect" : [ 51.0, 557.0, 30.0, 30.0 ]
				}

			}
, 			{
				"box" : 				{
					"id" : "obj-1",
					"maxclass" : "newobj",
					"numinlets" : 2,
					"numoutlets" : 1,
					"outlettype" : [ "multichannelsignal" ],
					"patching_rect" : [ 51.0, 421.0, 92.0, 22.0 ],
					"text" : "mc.mixdown~ 1"
				}

			}
, 			{
				"box" : 				{
					"id" : "obj-19",
					"maxclass" : "newobj",
					"numinlets" : 2,
					"numoutlets" : 1,
					"outlettype" : [ "int" ],
					"patching_rect" : [ 119.0, 304.0, 46.0, 22.0 ],
					"text" : "+ 3000"
				}

			}
, 			{
				"box" : 				{
					"id" : "obj-89",
					"maxclass" : "newobj",
					"numinlets" : 2,
					"numoutlets" : 2,
					"outlettype" : [ "setvalue", "int" ],
					"patching_rect" : [ 119.0, 333.0, 59.0, 22.0 ],
					"text" : "mc.target"
				}

			}
, 			{
				"box" : 				{
					"id" : "obj-92",
					"maxclass" : "newobj",
					"numinlets" : 2,
					"numoutlets" : 2,
					"outlettype" : [ "setvalue", "int" ],
					"patching_rect" : [ 51.0, 333.0, 59.0, 22.0 ],
					"text" : "mc.target"
				}

			}
, 			{
				"box" : 				{
					"id" : "obj-20",
					"maxclass" : "button",
					"numinlets" : 1,
					"numoutlets" : 1,
					"outlettype" : [ "bang" ],
					"parameter_enable" : 0,
					"patching_rect" : [ 25.0, 231.0, 24.0, 24.0 ]
				}

			}
, 			{
				"box" : 				{
					"id" : "obj-14",
					"maxclass" : "newobj",
					"numinlets" : 1,
					"numoutlets" : 2,
					"outlettype" : [ "bang", "float" ],
					"patching_rect" : [ 51.0, 186.0, 29.5, 22.0 ],
					"text" : "t b f"
				}

			}
, 			{
				"box" : 				{
					"id" : "obj-11",
					"maxclass" : "number",
					"numinlets" : 1,
					"numoutlets" : 2,
					"outlettype" : [ "", "bang" ],
					"parameter_enable" : 0,
					"patching_rect" : [ 197.0, 141.0, 50.0, 22.0 ]
				}

			}
, 			{
				"box" : 				{
					"id" : "obj-8",
					"maxclass" : "newobj",
					"numinlets" : 3,
					"numoutlets" : 2,
					"outlettype" : [ "", "" ],
					"patcher" : 					{
						"fileversion" : 1,
						"appversion" : 						{
							"major" : 9,
							"minor" : 0,
							"revision" : 2,
							"architecture" : "x64",
							"modernui" : 1
						}
,
						"classnamespace" : "box",
						"rect" : [ 548.0, 249.0, 435.0, 678.0 ],
						"gridsize" : [ 15.0, 15.0 ],
						"style" : "plant",
						"boxes" : [ 							{
								"box" : 								{
									"comment" : "",
									"id" : "obj-7",
									"index" : 2,
									"maxclass" : "outlet",
									"numinlets" : 1,
									"numoutlets" : 0,
									"patching_rect" : [ 247.0, 404.0, 30.0, 30.0 ]
								}

							}
, 							{
								"box" : 								{
									"comment" : "",
									"id" : "obj-3",
									"index" : 3,
									"maxclass" : "inlet",
									"numinlets" : 0,
									"numoutlets" : 1,
									"outlettype" : [ "float" ],
									"patching_rect" : [ 211.0, 40.0, 30.0, 30.0 ]
								}

							}
, 							{
								"box" : 								{
									"id" : "obj-21",
									"maxclass" : "button",
									"numinlets" : 1,
									"numoutlets" : 1,
									"outlettype" : [ "bang" ],
									"parameter_enable" : 0,
									"patching_rect" : [ 45.0, 133.0, 24.0, 24.0 ]
								}

							}
, 							{
								"box" : 								{
									"comment" : "",
									"id" : "obj-17",
									"index" : 1,
									"maxclass" : "outlet",
									"numinlets" : 1,
									"numoutlets" : 0,
									"patching_rect" : [ 182.0, 404.0, 30.0, 30.0 ]
								}

							}
, 							{
								"box" : 								{
									"id" : "obj-16",
									"maxclass" : "message",
									"numinlets" : 2,
									"numoutlets" : 1,
									"outlettype" : [ "" ],
									"patching_rect" : [ 45.0, 303.0, 100.0, 22.0 ],
									"text" : "setvalue $1 bang"
								}

							}
, 							{
								"box" : 								{
									"id" : "obj-14",
									"maxclass" : "newobj",
									"numinlets" : 5,
									"numoutlets" : 4,
									"outlettype" : [ "int", "", "", "int" ],
									"patching_rect" : [ 45.0, 242.0, 75.0, 22.0 ],
									"text" : "counter 1 50"
								}

							}
, 							{
								"box" : 								{
									"id" : "obj-11",
									"maxclass" : "message",
									"numinlets" : 2,
									"numoutlets" : 1,
									"outlettype" : [ "" ],
									"patching_rect" : [ 112.5, 208.0, 29.5, 22.0 ],
									"text" : "1"
								}

							}
, 							{
								"box" : 								{
									"id" : "obj-9",
									"maxclass" : "newobj",
									"numinlets" : 2,
									"numoutlets" : 1,
									"outlettype" : [ "bang" ],
									"patching_rect" : [ 45.0, 176.0, 63.0, 22.0 ],
									"text" : "metro 100"
								}

							}
, 							{
								"box" : 								{
									"comment" : "",
									"id" : "obj-6",
									"index" : 2,
									"maxclass" : "inlet",
									"numinlets" : 0,
									"numoutlets" : 1,
									"outlettype" : [ "" ],
									"patching_rect" : [ 89.0, 40.0, 30.0, 30.0 ]
								}

							}
, 							{
								"box" : 								{
									"id" : "obj-5",
									"maxclass" : "newobj",
									"numinlets" : 2,
									"numoutlets" : 2,
									"outlettype" : [ "", "" ],
									"patching_rect" : [ 182.0, 358.0, 84.0, 22.0 ],
									"text" : "mc.snapshot~"
								}

							}
, 							{
								"box" : 								{
									"id" : "obj-2",
									"maxclass" : "newobj",
									"numinlets" : 1,
									"numoutlets" : 1,
									"outlettype" : [ "multichannelsignal" ],
									"patching_rect" : [ 182.0, 288.0, 114.0, 22.0 ],
									"text" : "mc.sig~ @chans 60"
								}

							}
, 							{
								"box" : 								{
									"comment" : "",
									"id" : "obj-1",
									"index" : 1,
									"maxclass" : "inlet",
									"numinlets" : 0,
									"numoutlets" : 1,
									"outlettype" : [ "bang" ],
									"patching_rect" : [ 45.0, 40.0, 30.0, 30.0 ]
								}

							}
 ],
						"lines" : [ 							{
								"patchline" : 								{
									"destination" : [ "obj-11", 0 ],
									"order" : 1,
									"source" : [ "obj-1", 0 ]
								}

							}
, 							{
								"patchline" : 								{
									"destination" : [ "obj-2", 0 ],
									"order" : 0,
									"source" : [ "obj-1", 0 ]
								}

							}
, 							{
								"patchline" : 								{
									"destination" : [ "obj-21", 0 ],
									"order" : 2,
									"source" : [ "obj-1", 0 ]
								}

							}
, 							{
								"patchline" : 								{
									"destination" : [ "obj-14", 2 ],
									"source" : [ "obj-11", 0 ]
								}

							}
, 							{
								"patchline" : 								{
									"destination" : [ "obj-16", 0 ],
									"source" : [ "obj-14", 0 ]
								}

							}
, 							{
								"patchline" : 								{
									"destination" : [ "obj-5", 0 ],
									"source" : [ "obj-16", 0 ]
								}

							}
, 							{
								"patchline" : 								{
									"destination" : [ "obj-5", 0 ],
									"source" : [ "obj-2", 0 ]
								}

							}
, 							{
								"patchline" : 								{
									"destination" : [ "obj-9", 0 ],
									"source" : [ "obj-21", 0 ]
								}

							}
, 							{
								"patchline" : 								{
									"destination" : [ "obj-2", 0 ],
									"source" : [ "obj-3", 0 ]
								}

							}
, 							{
								"patchline" : 								{
									"destination" : [ "obj-17", 0 ],
									"source" : [ "obj-5", 0 ]
								}

							}
, 							{
								"patchline" : 								{
									"destination" : [ "obj-7", 0 ],
									"source" : [ "obj-5", 1 ]
								}

							}
, 							{
								"patchline" : 								{
									"destination" : [ "obj-9", 1 ],
									"source" : [ "obj-6", 0 ]
								}

							}
, 							{
								"patchline" : 								{
									"destination" : [ "obj-14", 0 ],
									"source" : [ "obj-9", 0 ]
								}

							}
 ],
						"originid" : "pat-218",
						"styles" : [ 							{
								"name" : "plant",
								"default" : 								{
									"accentcolor" : [ 0.611764705882353, 0.76078431372549, 0.525490196078431, 1.0 ],
									"bgcolor" : [ 0.152941176470588, 0.203921568627451, 0.129411764705882, 1.0 ],
									"bgfillcolor" : 									{
										"angle" : 270.0,
										"autogradient" : 0.0,
										"color" : [ 0.176470588235294, 0.211764705882353, 0.156862745098039, 1.0 ],
										"color1" : [ 0.317647058823529, 0.388235294117647, 0.290196078431373, 1.0 ],
										"color2" : [ 0.176470588235294, 0.211764705882353, 0.156862745098039, 1.0 ],
										"proportion" : 0.5,
										"type" : "gradient"
									}
,
									"bubble_bgcolor" : [ 0.83921568627451, 0.909803921568627, 0.807843137254902, 1.0 ],
									"bubble_outlinecolor" : [ 0.517647058823529, 0.592156862745098, 0.490196078431373, 1.0 ],
									"clearcolor" : [ 0.858823529411765, 0.905882352941176, 0.843137254901961, 1.0 ],
									"color" : [ 0.83921568627451, 0.909803921568627, 0.807843137254902, 1.0 ],
									"editing_bgcolor" : [ 0.87843137254902, 0.905882352941176, 0.866666666666667, 1.0 ],
									"elementcolor" : [ 0.513725490196078, 0.592156862745098, 0.490196078431373, 1.0 ],
									"locked_bgcolor" : [ 0.858823529411765, 0.905882352941176, 0.843137254901961, 1.0 ],
									"patchlinecolor" : [ 0.52156862745098, 0.592156862745098, 0.490196078431373, 1.0 ],
									"selectioncolor" : [ 0.905882352941176, 0.796078431372549, 0.635294117647059, 1.0 ],
									"stripecolor" : [ 0.223529411764706, 0.266666666666667, 0.2, 1.0 ],
									"textcolor" : [ 0.082352941176471, 0.109803921568627, 0.070588235294118, 1.0 ],
									"textcolor_inverse" : [ 0.87843137254902, 0.905882352941176, 0.866666666666667, 1.0 ]
								}
,
								"parentstyle" : "",
								"multi" : 0
							}
 ]
					}
,
					"patching_rect" : [ 51.0, 259.0, 73.0, 22.0 ],
					"saved_object_attributes" : 					{
						"globalpatchername" : "",
						"style" : "plant"
					}
,
					"text" : "p propagate"
				}

			}
, 			{
				"box" : 				{
					"id" : "obj-4",
					"maxclass" : "newobj",
					"numinlets" : 4,
					"numoutlets" : 1,
					"outlettype" : [ "multichannelsignal" ],
					"patching_rect" : [ 51.0, 386.0, 107.0, 22.0 ],
					"text" : "mc.cicadas"
				}

			}
 ],
		"lines" : [ 			{
				"patchline" : 				{
					"destination" : [ "obj-3", 0 ],
					"source" : [ "obj-1", 0 ]
				}

			}
, 			{
				"patchline" : 				{
					"destination" : [ "obj-25", 0 ],
					"source" : [ "obj-10", 0 ]
				}

			}
, 			{
				"patchline" : 				{
					"destination" : [ "obj-8", 1 ],
					"source" : [ "obj-11", 0 ]
				}

			}
, 			{
				"patchline" : 				{
					"destination" : [ "obj-11", 0 ],
					"source" : [ "obj-12", 0 ]
				}

			}
, 			{
				"patchline" : 				{
					"destination" : [ "obj-10", 0 ],
					"source" : [ "obj-13", 0 ]
				}

			}
, 			{
				"patchline" : 				{
					"destination" : [ "obj-20", 0 ],
					"order" : 1,
					"source" : [ "obj-14", 0 ]
				}

			}
, 			{
				"patchline" : 				{
					"destination" : [ "obj-8", 2 ],
					"source" : [ "obj-14", 1 ]
				}

			}
, 			{
				"patchline" : 				{
					"destination" : [ "obj-8", 0 ],
					"order" : 0,
					"source" : [ "obj-14", 0 ]
				}

			}
, 			{
				"patchline" : 				{
					"destination" : [ "obj-12", 0 ],
					"source" : [ "obj-15", 0 ]
				}

			}
, 			{
				"patchline" : 				{
					"destination" : [ "obj-2", 0 ],
					"source" : [ "obj-16", 0 ]
				}

			}
, 			{
				"patchline" : 				{
					"destination" : [ "obj-89", 0 ],
					"source" : [ "obj-19", 0 ]
				}

			}
, 			{
				"patchline" : 				{
					"destination" : [ "obj-22", 0 ],
					"source" : [ "obj-21", 0 ]
				}

			}
, 			{
				"patchline" : 				{
					"destination" : [ "obj-16", 1 ],
					"midpoints" : [ 459.5, 491.0, 75.5, 491.0 ],
					"source" : [ "obj-22", 0 ]
				}

			}
, 			{
				"patchline" : 				{
					"destination" : [ "obj-14", 0 ],
					"source" : [ "obj-25", 0 ]
				}

			}
, 			{
				"patchline" : 				{
					"destination" : [ "obj-5", 0 ],
					"source" : [ "obj-28", 0 ]
				}

			}
, 			{
				"patchline" : 				{
					"destination" : [ "obj-16", 0 ],
					"source" : [ "obj-3", 0 ]
				}

			}
, 			{
				"patchline" : 				{
					"destination" : [ "obj-4", 3 ],
					"source" : [ "obj-31", 0 ]
				}

			}
, 			{
				"patchline" : 				{
					"destination" : [ "obj-1", 0 ],
					"source" : [ "obj-4", 0 ]
				}

			}
, 			{
				"patchline" : 				{
					"destination" : [ "obj-4", 2 ],
					"midpoints" : [ 338.5, 371.0, 119.166666666666657, 371.0 ],
					"source" : [ "obj-5", 0 ]
				}

			}
, 			{
				"patchline" : 				{
					"destination" : [ "obj-19", 0 ],
					"order" : 0,
					"source" : [ "obj-8", 0 ]
				}

			}
, 			{
				"patchline" : 				{
					"destination" : [ "obj-89", 1 ],
					"order" : 0,
					"source" : [ "obj-8", 1 ]
				}

			}
, 			{
				"patchline" : 				{
					"destination" : [ "obj-92", 1 ],
					"order" : 1,
					"source" : [ "obj-8", 1 ]
				}

			}
, 			{
				"patchline" : 				{
					"destination" : [ "obj-92", 0 ],
					"order" : 1,
					"source" : [ "obj-8", 0 ]
				}

			}
, 			{
				"patchline" : 				{
					"destination" : [ "obj-4", 1 ],
					"source" : [ "obj-89", 0 ]
				}

			}
, 			{
				"patchline" : 				{
					"destination" : [ "obj-4", 0 ],
					"source" : [ "obj-92", 0 ]
				}

			}
 ],
		"originid" : "pat-216",
		"styles" : [ 			{
				"name" : "plant",
				"default" : 				{
					"accentcolor" : [ 0.611764705882353, 0.76078431372549, 0.525490196078431, 1.0 ],
					"bgcolor" : [ 0.152941176470588, 0.203921568627451, 0.129411764705882, 1.0 ],
					"bgfillcolor" : 					{
						"angle" : 270.0,
						"autogradient" : 0.0,
						"color" : [ 0.176470588235294, 0.211764705882353, 0.156862745098039, 1.0 ],
						"color1" : [ 0.317647058823529, 0.388235294117647, 0.290196078431373, 1.0 ],
						"color2" : [ 0.176470588235294, 0.211764705882353, 0.156862745098039, 1.0 ],
						"proportion" : 0.5,
						"type" : "gradient"
					}
,
					"bubble_bgcolor" : [ 0.83921568627451, 0.909803921568627, 0.807843137254902, 1.0 ],
					"bubble_outlinecolor" : [ 0.517647058823529, 0.592156862745098, 0.490196078431373, 1.0 ],
					"clearcolor" : [ 0.858823529411765, 0.905882352941176, 0.843137254901961, 1.0 ],
					"color" : [ 0.83921568627451, 0.909803921568627, 0.807843137254902, 1.0 ],
					"editing_bgcolor" : [ 0.87843137254902, 0.905882352941176, 0.866666666666667, 1.0 ],
					"elementcolor" : [ 0.513725490196078, 0.592156862745098, 0.490196078431373, 1.0 ],
					"locked_bgcolor" : [ 0.858823529411765, 0.905882352941176, 0.843137254901961, 1.0 ],
					"patchlinecolor" : [ 0.52156862745098, 0.592156862745098, 0.490196078431373, 1.0 ],
					"selectioncolor" : [ 0.905882352941176, 0.796078431372549, 0.635294117647059, 1.0 ],
					"stripecolor" : [ 0.223529411764706, 0.266666666666667, 0.2, 1.0 ],
					"textcolor" : [ 0.082352941176471, 0.109803921568627, 0.070588235294118, 1.0 ],
					"textcolor_inverse" : [ 0.87843137254902, 0.905882352941176, 0.866666666666667, 1.0 ]
				}
,
				"parentstyle" : "",
				"multi" : 0
			}
, 			{
				"name" : "plant-1",
				"default" : 				{
					"accentcolor" : [ 0.611764705882353, 0.76078431372549, 0.525490196078431, 1.0 ],
					"bgcolor" : [ 0.152941176470588, 0.203921568627451, 0.129411764705882, 1.0 ],
					"bgfillcolor" : 					{
						"angle" : 270.0,
						"autogradient" : 0.0,
						"color" : [ 0.176470588235294, 0.211764705882353, 0.156862745098039, 1.0 ],
						"color1" : [ 0.317647058823529, 0.388235294117647, 0.290196078431373, 1.0 ],
						"color2" : [ 0.176470588235294, 0.211764705882353, 0.156862745098039, 1.0 ],
						"proportion" : 0.5,
						"type" : "gradient"
					}
,
					"bubble_bgcolor" : [ 0.83921568627451, 0.909803921568627, 0.807843137254902, 1.0 ],
					"bubble_outlinecolor" : [ 0.517647058823529, 0.592156862745098, 0.490196078431373, 1.0 ],
					"clearcolor" : [ 0.858823529411765, 0.905882352941176, 0.843137254901961, 1.0 ],
					"color" : [ 0.83921568627451, 0.909803921568627, 0.807843137254902, 1.0 ],
					"editing_bgcolor" : [ 0.87843137254902, 0.905882352941176, 0.866666666666667, 1.0 ],
					"elementcolor" : [ 0.513725490196078, 0.592156862745098, 0.490196078431373, 1.0 ],
					"locked_bgcolor" : [ 0.858823529411765, 0.905882352941176, 0.843137254901961, 1.0 ],
					"patchlinecolor" : [ 0.52156862745098, 0.592156862745098, 0.490196078431373, 1.0 ],
					"selectioncolor" : [ 0.905882352941176, 0.796078431372549, 0.635294117647059, 1.0 ],
					"stripecolor" : [ 0.223529411764706, 0.266666666666667, 0.2, 1.0 ],
					"syntax_attributecolor" : [ 0.650980392156863, 0.745098039215686, 0.890196078431372, 1.0 ],
					"syntax_objargcolor" : [ 0.854901960784314, 0.905882352941176, 0.83921568627451, 1.0 ],
					"syntax_objectcolor" : [ 0.670588235294118, 0.890196078431372, 0.615686274509804, 1.0 ],
					"textcolor" : [ 0.137254901960784, 0.184313725490196, 0.117647058823529, 1.0 ],
					"textcolor_inverse" : [ 0.854901960784314, 0.905882352941176, 0.83921568627451, 1.0 ]
				}
,
				"parentstyle" : "",
				"multi" : 0
			}
 ]
	}

}
